<?xml version="1.0" encoding="utf-8"?>
<!-- Generator: Adobe Illustrator 24.3.0, SVG Export Plug-In . SVG Version: 6.00 Build 0)  -->
<svg version="1.1" id="Layer_1" xmlns="http://www.w3.org/2000/svg" xmlns:xlink="http://www.w3.org/1999/xlink" x="0px" y="0px"
	 viewBox="0 0 960 960" enable-background="new 0 0 960 960" xml:space="preserve">
<g>
	<path fill="#FFFFFF" d="M888.316,402.453c-2.615-4.19-8.064-4.442-12.165-6.229c-3.264-3.281-7.983-4.198-12.449-3.865
		c-10.663,0.593-21.983-2.071-32.061,2.534c-4.897-8.803-10.354-17.289-16.242-25.459c0.828-5.027-0.122-10.249-2.672-14.658
		c-4.085-7.219-8.105-14.958-14.951-19.969c-4.263-3.216-9.867-3.866-15.015-3.094c-3.784-3.703-7.682-7.293-11.629-10.817
		c3.695-11.142,3.297-23.867-1.99-34.432c-4.621-9.201-14.731-14.739-24.817-15.332c-11.264-0.698-22.259,2.988-32.329,7.715
		c-65.032-37.007-139.906-55.14-214.479-56.488c-51.738-0.926-103.711,6.107-153.045,21.829
		c2.412-17.825-3.443-36.861-16.291-49.602c-1.6-1.657-1.811-4.125-2.964-6.066c-5.376-10.768-17.346-17.119-29.146-17.395
		c-16.079-0.252-32.451,3.784-45.899,12.782c-13.505,8.908-23.55,22.56-28.943,37.737c-7.56,21.033-6.838,44.478-0.016,65.608
		c-6.659,5.709-11.751,13.18-14.837,21.374c-1.965,4.856-2.574,10.135-3.849,15.137c-15.974,14.715-30.697,30.867-43.138,48.701
		c-16.331,23.234-28.935,49.196-36.219,76.677c-7.593,28.455-9.388,58.454-5.141,87.599c0.097,1.226,0.585,2.566-0.057,3.744
		c-17.468,38.696-30.567,79.146-43.901,119.4c-2.818,7.617-4.548,15.795-3.89,23.948c0.179,4.669,4.41,7.764,8.34,9.445
		c9.558,3.76,20.213,2.493,29.909-0.041c10.768-0.146,22.519-1.925,30.502-9.851c4.962-4.661,7.398-11.223,8.876-17.72
		c2.834-10.127,6.066-20.14,9.388-30.12c28.244,41.416,67.614,74.444,111.223,98.725c57.56,31.996,122.673,49.391,188.232,53.606
		c60.874,3.865,122.616-3.265,180.583-22.446c40.288-13.359,78.788-32.556,112.806-58.031
		c32.914-24.655,61.735-55.376,81.752-91.457c2.29-0.008,4.889,0.495,6.854-1.039c2.55-1.9,3.987-4.864,5.222-7.715
		c4.182-10.346,5.011-21.577,6.635-32.5c0.455-3.809,1.884-7.39,2.826-11.085c3.955-14.309,6.35-29.024,7.398-43.82
		c1.551-8.892,4.223-17.533,6.96-26.117c4.515-14.634,8.99-29.284,12.888-44.088c2.664-10.695,5.165-21.423,7.91-32.094
		C889.543,412.595,891.264,407.033,888.316,402.453z"/>
	<g>
		<g>
			<g>
				<path fill="#070607" d="M250.174,183.905c13.448-8.998,29.82-13.034,45.899-12.782c11.8,0.276,23.77,6.627,29.146,17.395
					c1.153,1.941,1.364,4.41,2.964,6.066c12.847,12.742,18.702,31.777,16.29,49.602c49.334-15.722,101.307-22.755,153.045-21.829
					c74.574,1.348,149.447,19.482,214.479,56.488c10.07-4.726,21.065-8.413,32.329-7.715c10.086,0.593,20.197,6.131,24.817,15.332
					c5.287,10.565,5.685,23.29,1.99,34.432c3.947,3.525,7.845,7.114,11.629,10.817c5.149-0.772,10.752-0.122,15.015,3.094
					c6.846,5.011,10.866,12.75,14.951,19.969c2.55,4.41,3.5,9.631,2.672,14.658c5.888,8.169,11.345,16.656,16.242,25.459
					c10.078-4.604,21.398-1.941,32.061-2.534c4.466-0.333,9.185,0.585,12.449,3.865c4.101,1.787,9.55,2.038,12.165,6.229
					c2.948,4.58,1.226,10.143,0.171,15.032c-2.745,10.671-5.246,21.398-7.91,32.094c-3.898,14.804-8.372,29.454-12.888,44.088
					c-2.737,8.584-5.409,17.224-6.96,26.117c-1.047,14.796-3.443,29.511-7.398,43.82c-0.942,3.695-2.371,7.276-2.826,11.085
					c-1.624,10.922-2.452,22.154-6.635,32.5c-1.234,2.85-2.672,5.814-5.222,7.715c-1.965,1.535-4.564,1.031-6.854,1.039
					c-20.018,36.081-48.839,66.802-81.752,91.457c-34.018,25.475-72.519,44.673-112.806,58.031
					c-57.966,19.181-119.709,26.311-180.583,22.446c-65.559-4.215-130.672-21.609-188.233-53.606
					c-43.609-24.281-82.979-57.309-111.223-98.725c-3.321,9.981-6.553,19.994-9.388,30.12c-1.478,6.497-3.914,13.058-8.876,17.72
					c-7.983,7.926-19.734,9.704-30.502,9.851c-9.696,2.534-20.351,3.8-29.909,0.041c-3.93-1.681-8.161-4.775-8.34-9.445
					c-0.658-8.153,1.072-16.331,3.89-23.948c13.334-40.255,26.433-80.705,43.901-119.4c0.642-1.177,0.154-2.518,0.057-3.744
					c-4.247-29.146-2.452-59.144,5.141-87.599c7.284-27.481,19.888-53.443,36.219-76.677c12.441-17.833,27.164-33.986,43.138-48.701
					c1.275-5.002,1.884-10.281,3.849-15.137c3.086-8.194,8.178-15.665,14.837-21.374c-6.822-21.13-7.544-44.575,0.016-65.608
					C226.624,206.464,236.669,192.813,250.174,183.905z M252.318,198.327c-9.298,7.755-16.737,17.89-21.025,29.227
					c-6.943,18.8-4.702,39.841,2.217,58.299c0.365,1.965,0.885,3.89,1.421,5.823c-4.937,0.098-9.03,3.451-12.1,7.033
					c-6.229,7.219-8.673,16.802-9.193,26.133c-2.071,21.455,5.043,42.927,16.9,60.63c12.579,17.768,32.11,29.722,52.728,35.935
					c8.99,2.582,18.426,4.32,27.806,3.289c-17.297-6.643-33.157-17.224-45.59-30.997c-9.924-11.044-17.5-24.647-19.579-39.492
					c-1.657-10.882,0.512-21.813,2.266-32.532c1.113-6.846,2.81-13.838,1.47-20.781c2.477,4.937,2.233,10.671,1.47,15.998
					c-1.941,15.324-2.948,31.33,2.079,46.207c5.141,15.771,16.193,28.74,28.179,39.849c9.818,8.957,21.975,14.682,33.734,20.603
					c4.004,2.136,8.494,3.045,12.806,4.336c9.177,2.72,19.019,4.239,28.455,1.949c5.254-2.063,11.272-3.191,15.105-7.715
					c6.789-6.562,8.113-16.307,10.354-25.004c-0.942,9.144-4.41,18.548-1.259,27.635c1.884,4.929,8.835,3.752,11.726,0.439
					c4.726-5.417,5.067-13.099,5.36-19.928c0.536-8.17-2.014-16.079-4.848-23.624c-4.377-11.385-9.964-22.243-15.762-32.954
					c-5.741-10.63-12.571-20.627-18.304-31.257c-4.799-9.323-8.381-20.367-5.214-30.794c-6.984-1.454-13.424-4.783-19.189-8.917
					c-5.49-3.606-10.533-8.681-12.254-15.186c-1.592,2.858-3.183,5.806-5.612,8.064c-4.434,4.207-10.703,5.433-16.55,6.261
					c5.717-2.063,11.442-5.246,14.691-10.581c4.069-6.302,4.71-14.008,4.751-21.309c-0.853,4.223-2.371,8.446-5.482,11.548
					c-5.002,5.368-13.342,8.413-20.351,5.343c-6.026-2.997-9.185-9.574-10.736-15.819c-1.705-7.366-1.714-15.592,2.16-22.3
					c-0.845-1.486-1.567-3.045-2.071-4.686l-0.227-0.089c-1.746-9.363,2.956-20.838,12.79-23.364
					c-3.175,1.762-5.189,5.01-6.018,8.486c10.224,6.789,21.504,13.05,28.48,23.494c5.814,9.753,9.006,21.739,6.164,32.979
					c3.143-5.214,6.107-10.695,7.057-16.786c1.348-8.405,0.008-17.086-2.631-25.11c-2.444-7.284-7.617-13.196-13.367-18.101
					c-0.552-4.507-2.582-9.047-6.391-11.702c-3.931-2.729-8.673-4.426-13.473-4.491
					C280.026,184.546,264.247,188.444,252.318,198.327z M301.01,235.464c0.414,3.013,1.283,6.432,4.125,8.072
					c4.125,2.258,9.331,2.712,13.692,0.853C313.947,239.622,307.182,237.868,301.01,235.464z M446.422,252.55
					c-8.429,0.682-16.81,1.811-25.174,3.013c-1.031,0.219-2.176,0.268-3.013,0.958c-1.47,0.057-2.932,0.154-4.377,0.406
					c-11.523,2.046-22.998,4.434-34.31,7.455c7.025,4.385,13.635,9.469,19.116,15.722c11.621,13.472,21.837,29.219,24.582,47.109
					c2.136,13.221,2.899,26.661,3.005,40.06c3.541-5.019,6.943-10.208,11.442-14.455c0.885-0.95,2.047-1.722,2.607-2.915
					c12.603-11.67,27.798-20.253,43.82-26.279l0.138-0.357c2.087-0.414,4.15-0.983,6.148-1.73l0.171-0.284
					c11.743-3.817,23.81-6.757,36.105-8.032c5.985-0.56,12.1-0.755,17.996,0.585c6.562,1.364,12.717,4.198,18.329,7.812
					c1.835,1.535,3.695,3.045,5.603,4.483c3.329,2.915,5.888,6.521,8.429,10.102c7.731-4.824,16.599-7.138,25.24-9.737
					c18.247-5.254,37.039-8.99,56.066-9.607c2.209,0.154,3.736-1.567,5.165-2.98c5.555-5.628,11.686-10.638,17.776-15.665
					l0.893-0.203c-4.117-3.541-9.469-5.246-14.179-7.869l-0.284,0.154c-2.664-1.267-5.392-2.404-7.975-3.833
					c-9.916-4.799-20.245-8.73-30.632-12.392l-0.211,0.162c-8.909-3.2-17.955-6.009-27.083-8.511
					c-6.123-2.014-12.441-3.427-18.743-4.743c-4.743-0.934-9.461-1.949-14.187-2.94c-13.278-2.566-26.693-4.426-40.166-5.555
					c-6.846-0.625-13.708-1.088-20.578-1.413C487.562,250.114,466.935,250.715,446.422,252.55z M358.611,279.438
					c-4.864,4.174-5.823,11.166-4.613,17.151c1.746,9.104,6.277,17.362,10.988,25.24c6.115,10.184,13.416,19.579,19.92,29.503
					c3.533,5.896,6.399,12.165,9.152,18.451c7.171,16.688,9.461,34.871,12.157,52.688c3.062-7.877,4.596-16.242,6.131-24.517
					c4.604-26.831,5.279-55.092-3.752-81.111c-3.914-11.126-11.58-20.359-19.425-28.951c-4.832-5.01-10.996-8.827-17.712-10.687
					C367.163,276.044,361.949,276.084,358.611,279.438z M698.525,302.721c-11.507,8.365-22.024,18.061-31.533,28.626
					c-7.837-0.171-15.681,0.317-23.453,1.299c-15.137,1.746-29.714,6.31-44.364,10.273c-3.321,0.999-6.781,1.673-9.891,3.257
					c0.374,2.558,3.662,2.461,5.652,2.461c9.03-0.885,17.906-2.915,26.912-4.06c12.888-1.673,25.897-2.339,38.883-2.566
					c-5.319,6.797-9.826,14.203-13.757,21.886c-6.188,11.97-10.062,24.923-14.195,37.697c-1.843,6.269-3.784,12.603-4.117,19.165
					c-0.016,2.461,0.073,5.465,2.201,7.106c1.527,0.934,3.224,1.559,4.824,2.379c-17.24-0.536-34.489-1.226-51.738-0.95
					c7.317-1.648,14.479-4.166,20.944-8.023c0.26,1.056,0.252,2.396,1.429,2.923c3.224,0.828,6.635-0.495,9.307-2.29
					c1.925-2.907,0.536-6.586,0.861-9.769c7.617-8.08,11.686-19.311,10.703-30.396c-0.512-8.462-3.273-17.46-10.119-22.933
					c-7.073-5.693-16.656-6.716-25.418-6.188c-8.234,0.317-16.583,2.517-23.339,7.366c-3.63,2.656-7.025,6.058-8.462,10.419
					c-0.633,1.982-0.528,4.889,1.77,5.725c3.557,1.048,8.129,1.494,11.052-1.259c1.649-1.559,0.999-3.987,1.348-5.985
					c1.08-1.86,2.98-3.029,4.832-4.028c5.4-2.72,11.897-3.89,17.72-1.811c6.334,1.981,12.652,5.879,15.243,12.271
					c2.761,6.513,1.251,13.789-0.893,20.237c-3.192-6.123-7.512-12.563-14.536-14.561c-9.542-2.623-19.539,0.617-28.065,4.938
					c-7.561,4.02-15.243,9.777-17.752,18.353c-11.109,7.65-23.152,14.122-36.073,18.109c-8.933,2.623-18.767,4.101-27.765,0.934
					c-8.348-3.2-16.282-9.185-19.368-17.866c-3.086-8.641-1.218-18.15,2.103-26.425c3.126-7.463,6.951-14.894,12.969-20.448
					c9.079-8.47,20.611-14.041,32.581-17.086c7.268-1.705,15.048-2.761,22.349-0.666c4.393,1.543,9.095,4.166,10.817,8.762
					c1.543,4.872-1.949,9.518-5.603,12.36c-7.276,5.368-16.656,7.642-25.605,6.659c-1.762-0.008-3.711-0.585-5.295,0.414
					c-0.747,1.827,0.292,3.744,1.535,5.067c2.785,3.021,6.756,4.661,10.728,5.457c7.934,1.437,16.095-0.593,23.136-4.296
					c5.603-2.997,11.085-6.675,14.772-11.954c3.216-4.507,4.775-10.305,3.63-15.779c-1.267-6.651-6.042-12.173-11.791-15.503
					c-6.878-4.028-15.097-5.197-22.95-4.54c-13.789,0.966-27.318,4.41-40.255,9.193c-14.959,5.677-29.373,13.537-40.831,24.842
					c-9.355,9.152-16.274,21.082-18.239,34.124c-1.364,9.209-1.039,19.173,3.541,27.505c3.37,6.253,9.266,10.793,15.746,13.489
					c-18.272,2.29-36.471,5.181-54.564,8.632c-1.559,5.644-2.047,12.733,2.103,17.411c40.978-7.95,82.751-10.638,124.419-11.588
					c18.402-0.528,36.828-0.707,55.238-0.033c21.415,0.69,42.772,2.379,64.163,3.533c21.488,1.251,42.951,2.915,64.374,5.035
					c1.462-7.747,3.11-15.462,5.433-22.998c-24.574-3.078-49.269-5.043-73.997-6.245c7.252-19.36,15.332-38.411,24.046-57.146
					c4.572-9.396,8.876-19.238,16.242-26.839c1.787-1.616,3.622-3.784,6.229-3.809c9.956-0.406,19.953-0.577,29.909,0.073
					c8.169,0.479,16.16,2.558,24.354,2.826c1.478,0.097,2.915-0.325,4.288-0.869c0.041-0.601,0.122-1.795,0.162-2.388
					c1.973-0.633,6.05,0.455,5.953-2.631c-0.114-1.957-2.266-2.737-3.833-3.289c-5.547-1.657-11.369-2.014-17.094-2.607
					c-11.255-0.877-22.503-1.819-33.734-2.867c6.05-8.884,13.724-17.078,23.429-21.967c5.652-2.639,12.214-5.214,18.434-2.988
					c1.429-1.218,3.792-2.948,5.482-1.121c2.144,2.712,1.941,6.464,2.867,9.672c0.706,2.883,1.559,6.537,4.686,7.674
					c3.013,0.918,5.66-1.535,6.976-3.995c2.875-5.295,3.76-11.67,2.339-17.525c-0.731-4.32-2.128-9.055-6.034-11.548
					c-5.587-3.541-12.62-2.924-18.873-2.079C720.719,288.672,709.017,295.217,698.525,302.721z M783.257,347.45
					c-3.508,1.494-4.824,5.668-4.539,9.201c0.024,2.493,2.623,3.695,3.8,5.628c2.656,3.354,2.98,8.299,0.552,11.873
					c-3.939,5.733-9.193,10.427-14.747,14.561c-1.949,1.608-4.255,2.972-5.473,5.27c3.224,0.309,6.269-1.023,9.217-2.152
					c10.817-4.239,19.766-12.181,27.075-21.049c1.226-1.486,2.802-3.183,2.25-5.295c-0.95-3.996-3.825-7.106-5.888-10.557
					c-1.843-2.712-3.07-5.977-5.717-8.048C787.797,345.379,785.206,346.459,783.257,347.45z M700.855,353.898
					c-7.309,1.169-14.228,4.41-19.985,9.038c-9.526,7.658-16.112,18.402-20.57,29.665c-0.836,2.217-1.982,4.596-1.324,7.025
					c0.975,3.711,4.052,6.359,7.033,8.535c6.456,4.45,13.87,7.292,21.358,9.501c6.342,1.99,13.123,1.283,19.571,0.219
					c11.207-2.046,22.121-5.611,32.54-10.216c3.443-1.689,7.357-3.143,9.518-6.537c-2.168-1.973-5.311-1.194-7.95-1.194
					c-8.43,0.357-16.234,3.825-24.379,5.66c-10.232,3.062-21.715,5.522-31.874,0.901c-4.694-2.542-4.564-8.827-3.313-13.31
					c2.786-9.753,8.836-18.759,17.2-24.582c6.537-3.817,13.887-6.326,21.39-7.349c4.418-0.487,9.404-0.406,13.091,2.42
					c3.849,2.956,4.751,9.331,1.08,12.807c-4.864,4.653-11.832,6.107-18.296,6.895c-4.263,0.317-9.355,0.812-12.669-2.461
					c1.153-1.21,2.542-2.144,3.963-3.005c0.853-0.576,2.558-1.413,1.575-2.688c-2.233-1.478-5.303-2.16-7.845-1.169
					c-3.045,1.697-6.285,4.036-7.073,7.65c-0.414,2.818,0.284,6.22,2.85,7.845c3.606,2.428,7.991,3.281,12.238,3.849
					c9.786,1.015,19.88-0.219,28.991-3.979c6.659-2.858,12.904-7.885,15.3-14.934c1.616-4.572,0.877-10.111-2.607-13.635
					c-5.311-5.287-12.677-8.023-20.034-8.746C720.686,351.161,710.682,352.323,700.855,353.898z M177.485,410.135
					c-0.309,0.089-0.918,0.252-1.226,0.333c-2.842,5.279-5.563,10.663-7.658,16.29l0.861,0.033
					c-4.109,9.298-7.341,18.987-9.94,28.821c-0.885,3.598-1.998,7.179-2.29,10.898c3.378-5.246,6.066-10.89,9.128-16.315
					c4.15-7.918,9.306-15.227,14.195-22.69c4.231-6.424,8.852-12.628,14.382-18.004l0.422,0.057c2.128-2.12,4.694-3.776,7.439-4.978
					c7.975-3.622,17.029-1.551,25.288-4.077c-3.703-4.548-7.512-9.03-10.573-14.057c-4.093-6.326-7.065-13.261-9.891-20.221
					C195.992,379.665,185.646,394.323,177.485,410.135z M480.854,387.291c-1.86,4.791-2.046,10.581,0.999,14.942
					c4.174,5.871,11.645,9.298,18.84,8.324c11.296-1.291,21.674-6.48,31.484-11.929c2.436-1.486,5.132-2.664,7.114-4.767
					c-2.558,0.309-5.1,0.747-7.666,0.901c-9.972,0.569-20.359-2.793-27.408-10.021c-4.734-4.669-7.885-11.207-7.357-17.971
					C490.242,372.422,484.046,379.056,480.854,387.291z M763.036,409.274c-2.03,0.292-3.273,2.136-4.84,3.273
					c-5.709,4.783-12.701,7.552-19.011,11.353c8.722,1.34,17.492,2.436,26.238,3.606c15.722,2.875,31.444,6.001,46.605,11.15
					c-4.824-14.504-11.783-28.269-19.815-41.246C783.42,403.248,773.553,407.755,763.036,409.274z M831.43,420.668
					c-4.41,15.161-7.447,30.672-11.199,45.996c-2.201,9.445-5.417,18.613-7.747,28.025c-3.606,14.146-7.463,28.285-9.68,42.732
					c-11.077-17.947-13.343-39.516-22.633-58.251c-2.509-5.279-5.417-10.354-7.95-15.608c-2.956-5.953-3.971-12.717-7.406-18.442
					c-1.389-2.29-3.728-4.604-6.635-4.15c-8.868,1.129-17.882-0.081-26.718,1.389c-1.803,0.365-4.19,0.885-4.418,3.094
					c-5.823,23.599-8.129,47.872-11.783,71.869c-4.637,30.218-9.485,60.411-13.594,90.71c2.712,1.624,5.953,1.778,9.022,2.144
					c5.701,0.455,11.532,0.585,17.151-0.666c1.51-0.471,3.63-0.958,3.939-2.794c6.505-38.753,11.507-77.765,19.19-116.306
					c0.682,6.261,3.703,11.881,6.066,17.622c3.346,7.495,5.449,15.454,8.405,23.104c8.381,22.933,20.806,44.072,30.144,66.599
					c0.471,1.835,2.193,2.867,4.044,2.842c6.878,0.3,13.505-1.957,20.123-3.468c2.664-0.715,5.538,1.194,8.088-0.382
					c3.443-2.095,4.02-6.545,4.507-10.192c0.43-7.089,1.47-14.122,2.517-21.138c3.46-22.316,7.065-44.656,12.457-66.599
					c5.993-21.041,12.36-41.993,17.102-63.367c1.705-7.106,5.011-13.854,5.547-21.212c0.3-2.461-0.974-5.465-3.735-5.685
					c-9.786,0.13-19.604-0.073-29.406-0.081C833.923,411.938,832.802,416.436,831.43,420.668z M411.454,427.31
					c2.802-0.406,5.611-0.788,8.372-1.437c-0.877-2.168-1.592-4.401-2.103-6.675C415.912,422.105,413.947,424.939,411.454,427.31z
					 M210.821,423.997c-3.622-0.024-6.878,1.908-9.485,4.272c-3.849,3.484-6.911,7.707-9.924,11.905
					c-4.954,7.13-9.883,14.301-13.87,22.024c-7.828,14.853-15.324,29.885-23.729,44.429c-16.908,28.886-29.665,59.972-41.043,91.384
					c-8.884,24.671-16.981,49.618-25.386,74.46c-0.804,1.543,0.13,3.533,1.908,3.687c5.23,0.861,10.054-2.128,15.218-2.193
					c4.994-0.382,10.11,0,15.007-1.242c3.524-1.145,3.825-5.368,4.767-8.373c5.953-21.009,13.18-41.627,20.326-62.254
					c20.367-5.839,40.945-10.898,61.394-16.453c1.575,23.339,2.81,46.776,6.667,69.88c0.414,1.527,0.43,5.051,2.932,3.922
					c8.121-3.354,17.249-0.926,25.499-3.792c1.445-0.568,3.208-1.616,3.118-3.403c-5.676-48.79-11.743-97.775-10.785-146.995
					c0.479-26.311,1.494-52.664,4.483-78.813c0.106-2.785-2.761-4.312-5.197-4.418C225.349,421.39,218.17,423.859,210.821,423.997z
					 M252.911,448.863c-0.439,23.802-0.966,47.62-0.804,71.415c0.666-0.91,1.324-1.835,1.722-2.899
					c2.899-7.349,5.668-14.764,9.006-21.926c1.608-3.622,4.856-6.042,7.918-8.364c-2.209-3.557-4.174-7.593-3.492-11.905
					c0.471-4.759,4.004-8.235,7.293-11.329c2.193-1.405,4.45-2.712,6.846-3.752c-0.3-2.826-1.104-5.571-1.283-8.405
					c1.389-4.117,5.571-6.415,7.861-9.826c-3.914-4.718-8.243-9.095-12.595-13.416c-2.656-1.592-5.912-1.884-8.795-3.021
					c-0.008,0.512-0.033,1.527-0.049,2.03c-3.979-2.071-8.105-3.841-12.181-5.717C252.895,430.705,253.195,439.824,252.911,448.863z
					 M324.983,432.767c0.13,5.506-0.179,11.044-1.242,16.461c-8.072,1.795-13.529,9.518-13.927,17.557
					c-8.202,2.948-17.078,4.864-24.289,9.956c3.208,2.964,5.904,6.813,10.045,8.535c5.75,1.844,11.32-1.324,16.688-2.996
					c1.405,2.136,3.167,4.239,5.717,4.994c2.761,1.031,5.676,0.008,8.275-1.023c-2.111-1.348-4.621-2.55-5.538-5.067
					c-2.079-5.067-2.209-10.914-0.382-16.071c0.885,5.222,1.437,10.817,4.637,15.243c3.451,4.044,9.388,4.71,14.228,3.126
					c-2.314-1.462-4.791-2.94-6.147-5.425c-1.843-3.386-2.566-7.284-2.907-11.085c-0.349-5.1,1.762-9.883,3.93-14.358
					c-1.096-1.251-2.363-2.347-3.865-3.078c0.901-4.548,2.217-8.998,3.151-13.537C330.367,435.488,327.614,434.221,324.983,432.767z
					 M377.898,434.367c-6.375,3.135-10.192,9.989-10.728,16.932c-10.159,2.306-20.278,4.824-30.347,7.52
					c-1.9,5.392-1.746,11.272-0.098,16.713c3.719-1.088,7.431-2.379,11.312-2.688c3.273-0.276,6.57,0.528,9.818-0.098
					c4.726-0.836,9.136-2.842,13.789-3.971c2.98,3.053,7.91,3.727,11.523,1.389c-1.689-1.015-3.313-2.298-4.052-4.19
					c-2.233-5.197-2.087-11.191-0.3-16.502c0.869,5.059,1.567,10.403,4.41,14.812c3.671,4.45,10.159,5.141,15.43,3.589
					c-5.376-2.03-8.34-7.414-8.876-12.896c-1.494-6.318,1.112-12.53,4.304-17.858C390.063,432.662,383.177,431.704,377.898,434.367z
					 M787.829,448.757c1.023,4.726,3.208,9.055,5.027,13.497c4.564,0.146,9.128-0.097,13.667-0.642
					c0.333-2.477,0.642-4.97,1.527-7.325C801.578,451.583,794.667,450.178,787.829,448.757z M493.173,468.215
					c-0.211,0.227-0.642,0.674-0.853,0.893l0.016-1.088c-29.17,1.429-58.381,3.297-87.258,7.885
					c-0.227,5.376-0.975,10.752-0.845,16.128c0.966,1.64,2.168,3.126,3.224,4.71c2.794-2.493,5.563-5.01,8.576-7.236
					c26.173-19.758,64.016-22.738,92.829-6.992c15.064-5.311,30.136-10.63,45.395-15.365c-1.332-0.276-2.696-0.39-4.044-0.333
					C531.203,467.046,512.16,467.086,493.173,468.215z M648.858,469.871c1.348,1.998,2.68,4.004,3.971,6.042
					c3.971-1.843,8.178-3.061,12.352-4.345C659.74,470.992,654.291,470.489,648.858,469.871z M581.926,479.698
					c-14.756,3.695-29.584,7.26-43.869,12.531c-7.187,2.558-14.512,4.767-21.609,7.56c-2.404,0.926-2.371,3.955-1.673,6.018
					c1.86,5.798,5.733,10.638,8.356,16.095c0.633,1.803,2.907,1.502,4.41,1.234c8.592-1.892,16.039-6.903,24.192-9.964
					c11.921-2.94,23.827-6.05,35.975-7.95c-1.973,2.103-4.012,4.15-6.123,6.115c-9.704,8.965-18.824,18.556-27.765,28.277
					c-9.956,10.922-19.644,22.121-28.593,33.888c-6.156,8.194-12.157,16.648-16.169,26.141c-2.144,5.076-4.434,10.403-4.117,16.031
					c0.195,4.109,2.948,7.536,6.123,9.916c2.022,1.478,4.069,3.321,6.7,3.459c5.725,0.487,11.475-0.244,17.167-0.836
					c17.573-2.339,35.066-5.449,52.737-7.041c7.065,0.122,14.008-1.332,21.025-1.917c2.493-0.309,4.166-2.769,4.044-5.189
					c-0.122-5.132-2.729-9.834-5.701-13.87c-1.648-1.933-3.541-4.523-6.391-4.288c-19.076,0.609-38.103,3.013-57.203,2.55
					c5.214-9.355,12.871-17.013,19.628-25.231c5.1-6.131,9.656-12.677,14.601-18.922c5.815-7.39,12.587-13.952,19.734-20.026
					c8.259-7.114,15.389-15.389,23.299-22.86c6.74-5.953,13.448-12.133,18.41-19.685c1.275-1.494,0.073-3.313-0.69-4.718
					c-3.037-4.978-6.724-9.591-10.955-13.602c-1.397-1.137-2.915-2.834-4.913-2.314C608.871,473.258,595.39,476.49,581.926,479.698z
					 M696.86,474.525c2.144,1.21,4.32,2.387,6.456,3.63c0.154-1.048,0.309-2.095,0.479-3.135
					C701.481,474.833,699.166,474.655,696.86,474.525z M798.468,476.62c1.064,4.288,2.509,8.584,4.718,12.425
					c0.877-4.044,1.413-8.153,1.941-12.254C802.91,476.531,800.685,476.514,798.468,476.62z M671.702,489.5
					c-10.987,1.925-20.473,8.632-28.187,16.412c-10.671,10.955-18.84,24.354-23.664,38.866c-3.914,11.345-7.26,23.071-7.731,35.131
					c-0.284,8.113,0.991,16.623,5.522,23.526c5.587,8.503,15.763,14.081,26.027,13.269c9.924-0.715,18.93-5.806,26.588-11.865
					c9.29-7.512,17.273-16.713,23.209-27.099c2.956-5.124,4.491-10.89,6.245-16.493c3.939-13.7,6.968-27.919,6.196-42.245
					c-0.528-8.381-2.745-17.314-9.055-23.266C690.217,489.532,680.383,488.16,671.702,489.5z M429.149,503.386
					c-4.125,2.858-7.739,6.359-11.458,9.712c-6.626,6.066-13.245,12.157-19.433,18.686c-3.833,4.093-7.65,8.324-10.208,13.367
					c4.223,4.206,6.042,10.346,10.687,14.106c4.653,2.761,7.796-3.549,12.344-3.078c-5.4,7.934-10.322,16.339-13.318,25.491
					c-1.965,7.609-1.056,15.868,1.884,23.104c2.891,7.138,9.136,12.79,16.607,14.764c10.76,2.932,22.097,0.593,32.508-2.656
					c12.124-4.028,23.892-9.363,34.546-16.445c2.802,0.95,5.904,0.512,8.308-1.226c4.767-3.313,8.413-8.251,10.354-13.708
					c0.804-3.224,3.516-5.392,5.124-8.186c8.909-13.253,12.011-29.6,11.272-45.355c-0.414-5.888-0.162-12.051-2.607-17.557
					c-2.209-5.189-6.083-9.526-10.565-12.88c-7.398-5.49-16.355-8.567-25.41-9.915C462.241,489.037,443.677,493.13,429.149,503.386z
					 M356.695,500.82c-10.931,5.66-18.686,15.568-25.556,25.475c1.145-3.118,3.216-6.269,2.517-9.721
					c-0.95-3.135-4.613-4.312-7.552-4.41c-6.091,0.008-11.572,3.216-16.453,6.545c-7.309,5.23-13.797,11.605-19.181,18.8
					c1.015-12.953,5.222-25.296,8.243-37.859c0.211-1.267,1.007-3.395-0.869-3.744c-3.053,0.065-6.107,0.861-9.144,0.219
					c-2.997-0.568-6.618-0.869-8.868,1.624c-4.166,4.767-6.424,10.833-8.543,16.713c-5.441,16.274-8.275,33.255-11.304,50.097
					c-3.89,22.763-4.799,45.915-4.718,68.978c0.122,5.863-1.048,12.084,1.112,17.695c8.478-0.934,16.729-3.265,24.801-5.92
					c2.485-3.971,1.47-9.014,1.957-13.472c2.071-27.497,7.569-55.352,20.976-79.73c-0.682,4.288-2.03,8.438-2.534,12.758
					c-2.404,17.078-2.582,34.416-1.657,51.616c0.365,3.232,0.114,6.797,1.892,9.672c1.592,2.12,4.442,0.95,6.562,0.495
					c4.499-1.34,9.152-0.057,13.724-0.244c2.818-0.26,3.492-3.508,4.15-5.725c4.694-19.409,6.805-39.362,11.978-58.665
					c3.305-12.401,7.78-24.768,15.47-35.171c-3.809,33.685-8.356,67.297-11.824,101.023c-0.568,2.745,0.974,5.758,3.793,6.44
					c6.196,1.673,12.538-0.398,18.645-1.543c2.493-0.284,4.442-2.225,5.319-4.491c2.079-5.076,1.121-10.663,1.308-15.982
					c0.422-15.032,2.826-29.933,5.749-44.656c3.159-15.324,6.911-30.567,12.181-45.314c2.534-6.96,5.344-14.52,3.508-21.991
					c-1.161-4.832-6.399-7.179-11.02-6.87C372.709,493.86,364.353,496.93,356.695,500.82z M760.162,553.078
					c-2.274,14.414-4.97,28.772-7.049,43.211l-0.227,0.089c-1.259,7.78-2.656,15.616-5.547,22.982
					c-2.079,2.923-5.847,3.882-9.095,4.913c-9.916,2.55-20.31,3.151-30.477,2.071c-1.478,0-3.078-0.512-4.458,0.049
					c-4.653-1.056-9.461-0.723-14.155-1.405c-1.949-0.479-3.403-1.998-4.962-3.151l-0.211,0.179
					c-0.609-0.471-1.843-1.421-2.461-1.892c-9.607,7.406-20.781,12.969-32.816,14.845c-1.316,0.041-2.607,0.089-3.898,0.154
					c-2.047,0.008-4.085-0.032-6.115-0.081c-5.628-0.65-11.134-2.152-16.234-4.621c-3.939,4.02-9.16,6.594-14.747,7.268
					c-4.58,0.13-8.974,1.681-13.554,1.754c-8.105-0.008-16.096,1.527-24.111,2.493c-4.41,0.658-8.836,1.194-13.237,1.876
					c-12.368,1.787-24.777,4.125-37.323,3.703c-4.223-0.089-8.348-1.202-12.198-2.899c-0.325-0.633-0.942-0.991-1.835-1.056
					l0.033-0.154c-8.381-5.319-16.055-12.969-18.231-22.982c-4.044,2.258-8.478,3.963-12.246,6.635
					c-7.073,2.274-13.7,5.855-20.936,7.707l-0.089,0.187c-13.074,3.882-27.099,5.92-40.531,2.664
					c-5.636-1.592-10.971-4.085-15.787-7.398c-1.291,14.958-2.209,30.12-4.97,44.835c-1.048,2.282-2.152,4.548-3.549,6.643
					c-1.454,1.437-3.013,2.769-4.661,3.987c-3.906,1.64-8.178,2.038-12.36,1.592c-0.252,1.722-0.512,3.451-0.763,5.189
					c-0.625,2.128-1.039,4.613-2.988,5.993c-3.492,2.233-7.333,4.085-11.507,4.507c-2.794-0.341-5.79-0.268-8.243-1.884
					c-3.208-2.111-7.025-3.549-9.42-6.692c-0.853-0.934-1.47-2.152-2.566-2.818c-0.487-2.469-1.177-4.889-1.811-7.317
					c-0.089-1.852-0.146-3.695-0.171-5.538c-7.617-2.607-15.121-7.812-17.72-15.771c-1.389-5.709-2.111-11.548-3.013-17.346
					c-4.304,1.186-8.827,1.64-13.237,0.763c-1.291,7.512-5.847,14.885-13.456,17.232c-2.964,0.609-5.904,1.348-8.722,2.444
					c-3.833,0.585-7.552,1.803-11.369,2.501c-2.574,5.595-7.698,9.615-13.456,11.572c-2.444,0.577-4.889,1.121-7.341,1.64
					c11.889,10.037,25.085,18.442,38.428,26.417c1.316,0.861,2.777,1.486,4.369,1.592c10.533,6.919,22.202,11.889,33.758,16.802
					c0.374,0.836,1.015,1.389,1.933,1.648c28.602,12.116,58.641,20.716,89.223,26.076c2.509,0.593,5.067,0.958,7.634,1.275
					c3.362,0.357,6.716,0.845,10.054,1.421c8.592,1.153,17.232,1.973,25.889,2.534c4.864,0.999,9.826,0.325,14.739,0.731
					c2.03,0.138,4.06,0.057,6.091-0.171l0.317,0.357c8.965,0.219,17.931,0.097,26.888-0.26c3.646-0.089,7.284-0.325,10.923-0.568
					c6.659-0.373,13.302-1.007,19.937-1.705c4.32-0.528,8.697-0.706,12.961-1.673c8.527-1.145,16.981-2.729,25.434-4.337
					c9.696-1.803,19.311-4.109,28.772-6.878c2.314-0.715,4.613-1.494,6.992-1.99c4.832-1.421,9.721-2.721,14.358-4.718
					c54.742-18.719,106.269-49.724,144.12-93.958l0.528,0.041c8.503-9.639,16.266-20.067,22.714-31.192
					c-0.861-0.861-1.722-1.714-2.566-2.566c-1.397-1.9-2.623-3.922-3.557-6.083c-2.558-5.668-5.36-11.215-8.137-16.77
					C772.091,576.238,765.984,564.731,760.162,553.078z M184.501,613.131c0.715,1.478,1.551,2.891,2.566,4.198
					C186.848,615.518,187.392,612.327,184.501,613.131z M371.483,651.201c0.414,6.05,0.812,12.181,2.582,18.02
					c0.755,2.379,2.063,5.327,5.002,5.335c2.436-10.37,3.175-21.033,4.499-31.582C380.456,646.857,376.225,649.715,371.483,651.201z
					 M326.786,645.614c0.893,5.644,1.843,11.345,3.906,16.704c0.926,2.363,2.29,5.019,5.076,5.482
					c2.136-5.116,2.038-10.776,2.574-16.201c-3.411-1.6-6.489-3.817-9.022-6.602C328.467,645.2,327.622,645.403,326.786,645.614z
					 M347.77,653.971c-0.414,10.76-2.014,21.577-0.601,32.321c0.983,5.961,8.876,6.894,13.286,4.255
					c2.128-1.145,1.778-3.825,1.973-5.839c0.422-10.614,0.528-21.236,0.853-31.858C358.173,653.808,352.967,654.32,347.77,653.971z"
					/>
			</g>
			<path id="XMLID_71_" fill="#070607" d="M239.552,225.102c3.646-11.134,12.62-20.741,24.143-23.697
				c3.338-0.95,7.341-0.171,9.639,2.55c1.104,1.267,0.138,2.972,0.041,4.41c-0.341-1.47-0.91-3.208-2.566-3.63
				c-4.531-1.218-9.128,0.755-12.896,3.167c-9.924,6.31-15.519,18.451-14.821,30.063c0.032,5.173,4.653,10.46,10.11,9.615
				c4.694-0.78,8.982-3.533,12.019-7.146c2.144-2.501,2.623-5.839,3.053-8.982c1.502,3.598,1.795,7.772,0.073,11.361
				c-2.087,4.929-7.122,7.764-12.035,9.225c-1.494,4.158-1.973,8.884-0.098,13.009c3.021,6.684,9.664,11.897,17.086,12.425
				c3.508,0.325,6.976-0.65,10.167-2.038c-8.803,6.083-21.309,2.769-28.228-4.661c-4.45-4.613-6.277-11.385-4.978-17.63
				c-3.727,0.106-7.154-1.567-9.656-4.263c-3.094,4.775-4.41,10.37-5.847,15.803c-1.38,5.449-1.933,11.077-1.835,16.688
				c-0.918-3.849-1.957-7.707-2.046-11.686c-0.455-9.68,2.899-18.97,6.375-27.822C237.205,236.203,237.554,230.462,239.552,225.102z
				"/>
			<path id="XMLID_70_" fill="#070607" d="M255.915,218.248c6.375-3.053,13.424,6.156,9.371,11.71
				c-2.339,3.005-7.008,1.941-9.29-0.593C253.024,226.58,251.961,220.652,255.915,218.248z"/>
			<path id="XMLID_69_" fill="#070607" d="M581.146,391.392c4.06-2.428,9.501-2.363,13.229,0.682
				c5.595,3.792,7.544,10.671,8.657,16.973c-4.962,5.067-11.369,9.12-18.572,9.761c-3.646,0.333-7.885-0.219-10.346-3.224
				c-2.972-3.346-5.709-7.95-4.117-12.555C571.913,397.832,576.501,394.121,581.146,391.392z"/>
			<path id="XMLID_68_" fill="#070607" d="M528.166,430.226c7.991-4.085,15.535-8.998,22.69-14.39
				c6.7,6.813,15.348,11.856,24.833,13.448C559.845,429.154,544.002,429.698,528.166,430.226z"/>
			<path id="XMLID_67_" fill="#070607" d="M155.542,571.82c12.717-34.359,28.788-67.517,48.449-98.449
				c-0.658,10.874-1.575,21.731-2.387,32.597c-1.088,17.111-0.625,34.319,1.178,51.372
				C186.84,561.491,170.972,566.006,155.542,571.82z"/>
			<path id="XMLID_66_" fill="#070607" d="M673.245,514.585c2.396-1.039,6.44-1.291,7.333,1.843
				c1.34,4.239,1.039,8.787,0.934,13.172c-0.495,7.439-1.023,15.007-3.598,22.072c-4.312,13.026-10.013,26.214-20.245,35.715
				c-1.705,1.405-3.443,3.516-5.904,3.086c-4.491-0.016-8.235-3.533-9.323-7.747c-2.168-7.609-0.82-15.641,0.617-23.25
				c2.193-13.066,8.714-25.134,17.443-34.984C664.141,520.529,668.202,516.68,673.245,514.585z"/>
			<path id="XMLID_65_" fill="#070607" d="M456.833,518.255c7.349-2.412,15.762-2.899,22.844,0.617
				c5.181,2.509,9.047,7.455,10.338,13.058c1.697,6.854,0.236,14.033-2.144,20.546c-5.311-7.593-11.247-15.251-19.555-19.734
				c-11.694-5.782-26.011-3.768-36.771,3.175C438.212,527.968,446.95,521.561,456.833,518.255z"/>
			<path id="XMLID_64_" fill="#070607" d="M439.276,563.854c4.458-2.144,9.307-4.101,14.341-3.89
				c6.537,3.792,10.492,10.646,14.764,16.664c-7.569,6.115-15.795,11.702-25.061,14.869c-4.117,1.283-8.827,2.168-12.88,0.236
				c-5.035-2.566-7.642-9.209-5.4-14.463C427.663,571.041,433.477,566.899,439.276,563.854z"/>
		</g>
		<g>
			<path id="XMLID_63_" fill="#E11F26" d="M252.318,198.327c11.93-9.883,27.708-13.781,42.943-13.96
				c4.799,0.065,9.542,1.762,13.473,4.491c3.809,2.656,5.839,7.195,6.391,11.702c-4.929-5.327-12.807-7.593-19.685-4.962
				c-9.834,2.525-14.536,14-12.79,23.364c-4.694-1.397-10.33-4.881-9.274-10.598c0.097-1.437,1.064-3.143-0.041-4.41
				c-2.298-2.721-6.302-3.5-9.639-2.55c-11.523,2.956-20.497,12.563-24.143,23.697c-1.998,5.36-2.347,11.101-2.298,16.761
				c-3.476,8.852-6.83,18.142-6.375,27.822c0.089,3.979,1.129,7.837,2.046,11.686c0.171,1.494,0.349,2.988,0.585,4.483
				c-6.919-18.459-9.16-39.5-2.217-58.299C235.581,216.218,243.02,206.083,252.318,198.327z"/>
			<path id="XMLID_62_" fill="#E11F26" d="M358.611,279.438c3.338-3.354,8.551-3.395,12.847-2.233
				c6.716,1.86,12.88,5.677,17.712,10.687c7.845,8.592,15.511,17.825,19.425,28.951c9.03,26.019,8.356,54.28,3.752,81.111
				c-1.535,8.275-3.07,16.64-6.131,24.517c-2.696-17.817-4.986-36-12.157-52.688c-2.753-6.286-5.62-12.555-9.152-18.451
				c-6.505-9.924-13.805-19.32-19.92-29.503c-4.71-7.877-9.242-16.136-10.988-25.24
				C352.789,290.604,353.747,283.612,358.611,279.438z"/>
			<path id="XMLID_61_" fill="#E11F26" d="M222.831,298.709c3.07-3.581,7.163-6.935,12.1-7.033c1.348,0.78,2.94,0.893,4.434,1.259
				c4.393,0.901,8.34,3.898,10.273,7.958c1.34,6.943-0.357,13.935-1.47,20.781c-1.754,10.72-3.922,21.65-2.266,32.532
				c2.079,14.845,9.656,28.447,19.579,39.492c12.433,13.773,28.293,24.354,45.59,30.997c-9.38,1.031-18.816-0.707-27.806-3.289
				c-20.619-6.212-40.149-18.166-52.728-35.935c-11.856-17.703-18.97-39.175-16.9-60.63
				C214.158,315.511,216.603,305.928,222.831,298.709z"/>
		</g>
		<g>
			<path id="XMLID_60_" fill="#F7B61C" d="M234.761,264.683c1.437-5.433,2.753-11.028,5.847-15.803
				c2.501,2.696,5.928,4.369,9.656,4.263c-1.299,6.245,0.528,13.018,4.978,17.63c6.919,7.431,19.425,10.744,28.228,4.661
				c0.633-0.382,1.267-0.78,1.9-1.177c4.418,2.42,9.558,3.476,14.544,2.599c5.847-0.828,12.116-2.055,16.55-6.261
				c2.428-2.258,4.02-5.206,5.612-8.064c1.722,6.505,6.765,11.58,12.254,15.186c5.766,4.133,12.206,7.463,19.189,8.917
				c-3.167,10.427,0.414,21.471,5.214,30.794c5.733,10.63,12.563,20.627,18.304,31.257c5.798,10.711,11.385,21.569,15.762,32.954
				c2.834,7.544,5.384,15.454,4.848,23.624c-0.292,6.83-0.633,14.512-5.36,19.928c-2.891,3.313-9.842,4.491-11.726-0.439
				c-3.151-9.087,0.317-18.491,1.259-27.635c-2.241,8.697-3.565,18.442-10.354,25.004c-3.833,4.523-9.851,5.652-15.105,7.715
				c-9.436,2.29-19.279,0.771-28.455-1.949c-4.312-1.291-8.803-2.201-12.806-4.336c-11.759-5.92-23.916-11.645-33.734-20.603
				c-11.986-11.109-23.039-24.078-28.179-39.849c-5.027-14.877-4.02-30.883-2.079-46.207c0.763-5.327,1.007-11.061-1.47-15.998
				c-1.933-4.06-5.879-7.057-10.273-7.958c-1.494-0.365-3.086-0.479-4.434-1.259c-0.536-1.933-1.056-3.857-1.421-5.823
				c-0.236-1.494-0.414-2.988-0.585-4.483C232.828,275.759,233.38,270.132,234.761,264.683z"/>
			<path id="XMLID_59_" fill="#F7B61C" d="M831.43,420.668c1.372-4.231,2.493-8.73,5.4-12.214c9.802,0.008,19.62,0.211,29.406,0.081
				c2.761,0.219,4.036,3.224,3.735,5.685c-0.536,7.357-3.841,14.106-5.547,21.212c-4.742,21.374-11.109,42.326-17.102,63.367
				c-5.392,21.943-8.998,44.283-12.457,66.599c-1.048,7.016-2.087,14.049-2.517,21.138c-0.487,3.646-1.064,8.096-4.507,10.192
				c-2.55,1.575-5.425-0.333-8.088,0.382c-6.619,1.51-13.245,3.768-20.123,3.468c-1.852,0.024-3.573-1.007-4.044-2.842
				c-9.339-22.527-21.764-43.666-30.144-66.599c-2.956-7.65-5.059-15.608-8.405-23.104c-2.363-5.741-5.384-11.361-6.066-17.622
				c-7.682,38.541-12.685,77.554-19.19,116.306c-0.309,1.835-2.428,2.323-3.939,2.794c-5.62,1.251-11.45,1.121-17.151,0.666
				c-3.07-0.365-6.31-0.52-9.022-2.144c4.109-30.299,8.957-60.492,13.594-90.71c3.654-23.997,5.961-48.27,11.783-71.869
				c0.227-2.209,2.615-2.729,4.418-3.094c8.835-1.47,17.85-0.26,26.718-1.389c2.907-0.455,5.246,1.86,6.635,4.15
				c3.435,5.725,4.45,12.49,7.406,18.442c2.534,5.254,5.441,10.33,7.95,15.608c9.29,18.735,11.556,40.304,22.633,58.251
				c2.217-14.447,6.074-28.585,9.68-42.732c2.331-9.412,5.547-18.581,7.747-28.025C823.983,451.34,827.021,435.829,831.43,420.668z"
				/>
			<g>
				<path fill="#F7B61C" d="M210.821,423.997c7.349-0.138,14.528-2.607,21.902-1.973c2.436,0.106,5.303,1.632,5.197,4.418
					c-2.989,26.149-4.004,52.501-4.483,78.813c-0.958,49.22,5.108,98.205,10.785,146.995c0.089,1.786-1.673,2.834-3.118,3.403
					c-8.251,2.867-17.379,0.438-25.499,3.792c-2.501,1.129-2.518-2.396-2.932-3.922c-3.857-23.104-5.092-46.541-6.667-69.88
					c-20.448,5.555-41.026,10.614-61.394,16.453c-7.146,20.627-14.374,41.246-20.326,62.254c-0.942,3.005-1.243,7.227-4.767,8.373
					c-4.897,1.242-10.013,0.861-15.007,1.242c-5.165,0.065-9.989,3.054-15.218,2.193c-1.779-0.154-2.712-2.144-1.908-3.687
					c8.405-24.842,16.501-49.789,25.386-74.46c11.377-31.411,24.135-62.498,41.043-91.384c8.405-14.544,15.901-29.576,23.729-44.429
					c3.987-7.723,8.917-14.894,13.87-22.024c3.013-4.199,6.074-8.421,9.924-11.905C203.942,425.905,207.199,423.973,210.821,423.997
					z M155.542,571.82c15.43-5.815,31.298-10.33,47.239-14.479c-1.803-17.054-2.266-34.262-1.178-51.372
					c0.812-10.866,1.73-21.723,2.387-32.597C184.33,504.304,168.259,537.461,155.542,571.82z"/>
			</g>
			<path id="XMLID_56_" fill="#F7B61C" d="M581.926,479.698c13.464-3.208,26.945-6.44,40.628-8.6
				c1.998-0.52,3.516,1.177,4.913,2.314c4.231,4.012,7.918,8.624,10.955,13.602c0.763,1.405,1.965,3.224,0.69,4.718
				c-4.962,7.552-11.67,13.732-18.41,19.685c-7.91,7.471-15.04,15.746-23.299,22.86c-7.146,6.074-13.919,12.636-19.734,20.026
				c-4.945,6.245-9.501,12.79-14.601,18.922c-6.757,8.218-14.414,15.876-19.628,25.231c19.1,0.463,38.127-1.941,57.203-2.55
				c2.85-0.235,4.743,2.355,6.391,4.288c2.972,4.036,5.579,8.738,5.701,13.87c0.122,2.42-1.551,4.881-4.044,5.189
				c-7.016,0.585-13.96,2.038-21.025,1.917c-17.671,1.592-35.163,4.702-52.737,7.041c-5.693,0.593-11.442,1.324-17.167,0.836
				c-2.631-0.138-4.678-1.982-6.7-3.459c-3.175-2.379-5.928-5.806-6.123-9.916c-0.317-5.628,1.973-10.955,4.117-16.031
				c4.012-9.493,10.013-17.947,16.169-26.141c8.949-11.767,18.637-22.966,28.593-33.888c8.941-9.721,18.061-19.311,27.765-28.277
				c2.111-1.965,4.15-4.012,6.123-6.115c-12.149,1.9-24.054,5.01-35.975,7.95c-8.153,3.061-15.6,8.072-24.192,9.964
				c-1.502,0.268-3.776,0.569-4.41-1.234c-2.623-5.457-6.497-10.297-8.356-16.095c-0.698-2.063-0.731-5.092,1.673-6.018
				c7.098-2.794,14.422-5.002,21.609-7.56C552.342,486.958,567.17,483.393,581.926,479.698z"/>
			<g>
				<path fill="#F7B61C" d="M671.702,489.5c8.681-1.34,18.515,0.032,25.15,6.237c6.31,5.953,8.527,14.885,9.055,23.266
					c0.771,14.325-2.258,28.545-6.196,42.245c-1.754,5.603-3.289,11.369-6.245,16.493c-5.936,10.387-13.919,19.587-23.209,27.099
					c-7.658,6.058-16.664,11.15-26.588,11.865c-10.265,0.812-20.44-4.767-26.027-13.269c-4.531-6.903-5.806-15.413-5.522-23.526
					c0.471-12.059,3.817-23.786,7.731-35.131c4.824-14.512,12.993-27.911,23.664-38.866
					C651.229,498.132,660.714,491.424,671.702,489.5z M673.245,514.585c-5.043,2.095-9.103,5.944-12.742,9.907
					c-8.73,9.851-15.251,21.918-17.443,34.984c-1.437,7.609-2.785,15.641-0.617,23.25c1.088,4.215,4.832,7.731,9.323,7.747
					c2.461,0.43,4.198-1.681,5.904-3.086c10.232-9.501,15.933-22.69,20.245-35.715c2.574-7.065,3.102-14.634,3.598-22.072
					c0.106-4.385,0.406-8.933-0.934-13.172C679.684,513.294,675.64,513.545,673.245,514.585z"/>
			</g>
			<g>
				<path fill="#F7B61C" d="M429.149,503.386c14.528-10.257,33.092-14.349,50.633-11.775c9.055,1.348,18.012,4.426,25.41,9.915
					c4.483,3.354,8.356,7.69,10.565,12.88c2.444,5.506,2.193,11.67,2.607,17.557c0.739,15.754-2.363,32.102-11.272,45.355
					c-1.608,2.794-4.32,4.962-5.124,8.186c-1.941,5.457-5.587,10.395-10.354,13.708c-2.404,1.738-5.506,2.176-8.308,1.226
					c-10.655,7.081-22.422,12.417-34.546,16.445c-10.411,3.248-21.748,5.587-32.508,2.656c-7.471-1.973-13.716-7.626-16.607-14.764
					c-2.94-7.236-3.849-15.495-1.884-23.104c2.997-9.152,7.918-17.557,13.318-25.491c-4.548-0.471-7.69,5.839-12.344,3.078
					c-4.645-3.76-6.464-9.899-10.687-14.106c2.558-5.043,6.375-9.274,10.208-13.367c6.188-6.529,12.807-12.62,19.433-18.686
					C421.41,509.745,425.023,506.245,429.149,503.386z M456.833,518.255c-9.883,3.305-18.621,9.713-25.288,17.663
					c10.76-6.943,25.077-8.957,36.771-3.175c8.308,4.483,14.244,12.141,19.555,19.734c2.379-6.513,3.841-13.692,2.144-20.546
					c-1.291-5.603-5.157-10.549-10.338-13.058C472.595,515.356,464.182,515.844,456.833,518.255z M439.276,563.854
					c-5.798,3.045-11.613,7.187-14.236,13.416c-2.241,5.254,0.365,11.897,5.4,14.463c4.052,1.933,8.762,1.048,12.88-0.236
					c9.266-3.167,17.492-8.754,25.061-14.869c-4.271-6.018-8.226-12.872-14.764-16.664
					C448.582,559.753,443.734,561.71,439.276,563.854z"/>
			</g>
			<path id="XMLID_50_" fill="#F7B61C" d="M356.695,500.82c7.658-3.89,16.014-6.96,24.663-7.358c4.621-0.309,9.859,2.038,11.02,6.87
				c1.835,7.471-0.974,15.032-3.508,21.991c-5.27,14.747-9.022,29.99-12.181,45.314c-2.923,14.723-5.327,29.625-5.749,44.656
				c-0.187,5.319,0.771,10.906-1.308,15.982c-0.877,2.266-2.826,4.207-5.319,4.491c-6.107,1.145-12.449,3.216-18.645,1.543
				c-2.818-0.682-4.361-3.695-3.793-6.44c3.468-33.726,8.015-67.338,11.824-101.023c-7.69,10.403-12.165,22.771-15.47,35.171
				c-5.173,19.303-7.284,39.256-11.978,58.665c-0.658,2.217-1.332,5.465-4.15,5.725c-4.572,0.187-9.225-1.096-13.724,0.244
				c-2.12,0.455-4.97,1.624-6.562-0.495c-1.778-2.875-1.527-6.44-1.892-9.672c-0.926-17.2-0.747-34.538,1.657-51.616
				c0.504-4.32,1.852-8.47,2.534-12.758c-13.408,24.379-18.905,52.233-20.976,79.73c-0.487,4.458,0.528,9.501-1.957,13.472
				c-8.072,2.656-16.323,4.986-24.801,5.92c-2.16-5.612-0.991-11.832-1.112-17.695c-0.081-23.063,0.828-46.216,4.718-68.978
				c3.029-16.843,5.863-33.823,11.304-50.097c2.12-5.88,4.377-11.946,8.543-16.713c2.249-2.493,5.871-2.193,8.868-1.624
				c3.037,0.642,6.091-0.154,9.144-0.219c1.876,0.349,1.08,2.477,0.869,3.744c-3.021,12.563-7.228,24.907-8.243,37.859
				c5.384-7.195,11.873-13.57,19.181-18.8c4.881-3.33,10.362-6.537,16.453-6.545c2.94,0.097,6.602,1.275,7.552,4.41
				c0.698,3.451-1.372,6.602-2.517,9.721C338.009,516.388,345.764,506.48,356.695,500.82z"/>
			<path id="XMLID_49_" fill="#F7B61C" d="M371.483,651.201c4.742-1.486,8.973-4.345,12.084-8.226
				c-1.324,10.549-2.063,21.212-4.499,31.582c-2.94-0.008-4.247-2.956-5.002-5.335C372.295,663.383,371.897,657.251,371.483,651.201
				z"/>
			<path id="XMLID_48_" fill="#F7B61C" d="M326.786,645.614c0.836-0.211,1.681-0.414,2.534-0.617
				c2.534,2.785,5.611,5.002,9.022,6.602c-0.536,5.425-0.439,11.085-2.574,16.201c-2.785-0.463-4.15-3.118-5.076-5.482
				C328.629,656.959,327.679,651.258,326.786,645.614z"/>
			<path id="XMLID_47_" fill="#F7B61C" d="M347.77,653.971c5.197,0.349,10.403-0.162,15.511-1.121
				c-0.325,10.622-0.43,21.244-0.853,31.858c-0.195,2.014,0.154,4.694-1.973,5.839c-4.41,2.639-12.303,1.705-13.286-4.255
				C345.756,675.548,347.356,664.731,347.77,653.971z"/>
		</g>
		<g>
			<path id="XMLID_46_" fill="#144522" d="M446.422,252.55c20.513-1.835,41.14-2.436,61.718-1.478
				c-25.004,22.901-41.489,52.972-58.746,81.712c-3.2,5.603-7,10.963-9.095,17.119c-0.56,1.194-1.722,1.965-2.607,2.915
				c-4.499,4.247-7.901,9.436-11.442,14.455c-0.106-13.399-0.869-26.839-3.005-40.06
				C428.597,301.762,432.478,275.053,446.422,252.55z"/>
			<path id="XMLID_45_" fill="#144522" d="M528.718,252.485c13.473,1.129,26.888,2.988,40.166,5.555
				c-3.411,0.333-6.131,2.615-9.112,4.06c-23.282,12.352-44.526,28.764-61.523,48.977c-2.672,3.297-5.62,6.423-7.674,10.175
				l-0.171,0.284c-1.998,0.747-4.06,1.316-6.148,1.73c1.186-3.143,2.485-6.237,3.963-9.25
				C499.077,291.904,513.727,271.935,528.718,252.485z"/>
			<path id="XMLID_44_" fill="#144522" d="M379.547,264.382c11.312-3.021,22.787-5.408,34.31-7.455
				c1.445-0.252,2.907-0.349,4.377-0.406c-7.804,6.691-14.439,14.674-19.571,23.583
				C393.182,273.851,386.572,268.767,379.547,264.382z"/>
			<path id="XMLID_43_" fill="#144522" d="M583.071,260.98c6.302,1.316,12.62,2.729,18.743,4.743
				c-25.37,11.726-49.951,25.459-72.202,42.431c2.428-3.183,5.376-5.904,8.113-8.819c9.574-9.899,19.433-19.628,30.461-27.927
				C573.009,267.744,578.231,264.634,583.071,260.98z"/>
			<path id="XMLID_42_" fill="#144522" d="M628.897,274.233l0.211-0.162c10.387,3.663,20.716,7.593,30.632,12.392
				c-31.712,9.777-62.149,23.534-91.132,39.638c-1.908-1.437-3.768-2.948-5.603-4.483
				C584.24,304.832,606.597,289.54,628.897,274.233z"/>
			<path id="XMLID_41_" fill="#144522" d="M667.714,290.296l0.284-0.154c4.71,2.623,10.062,4.328,14.179,7.869l-0.893,0.203
				c-13.399,2.964-26.701,6.44-39.735,10.768c-8.762,2.72-17.176,6.424-25.816,9.493
				C632.803,308.633,650.092,299.123,667.714,290.296z"/>
			<path id="XMLID_40_" fill="#144522" d="M177.485,410.135c8.162-15.811,18.507-30.469,30.136-43.909
				c2.826,6.96,5.798,13.895,9.891,20.221c3.062,5.027,6.87,9.51,10.573,14.057c-8.259,2.525-17.314,0.455-25.288,4.077
				c-2.745,1.202-5.311,2.858-7.439,4.978l-0.422-0.057C189.13,409.063,183.275,409.607,177.485,410.135z"/>
			<path id="XMLID_39_" fill="#144522" d="M763.036,409.274c10.516-1.519,20.383-6.026,29.178-11.865
				c8.031,12.977,14.991,26.742,19.815,41.246c-15.162-5.149-30.883-8.275-46.605-11.15c-8.746-1.169-17.517-2.266-26.238-3.606
				c6.31-3.801,13.302-6.57,19.011-11.353C759.764,411.41,761.006,409.566,763.036,409.274z"/>
			<path id="XMLID_38_" fill="#144522" d="M169.461,426.791c3.703,0.114,7.398,0.422,11.093,0.715
				c-4.889,7.463-10.046,14.772-14.195,22.69c-3.062,5.425-5.75,11.069-9.128,16.315c0.292-3.719,1.405-7.301,2.29-10.898
				C162.12,445.777,165.352,436.089,169.461,426.791z"/>
			<path id="XMLID_37_" fill="#144522" d="M252.911,448.863c7.699,4.239,14.959,9.282,21.642,14.991
				c-3.289,3.094-6.822,6.57-7.293,11.329c-0.682,4.312,1.283,8.348,3.492,11.905c-3.062,2.322-6.31,4.742-7.918,8.364
				c-3.338,7.163-6.107,14.577-9.006,21.926c-0.398,1.064-1.056,1.99-1.722,2.899C251.944,496.483,252.472,472.665,252.911,448.863z
				"/>
			<path id="XMLID_36_" fill="#144522" d="M798.468,476.62c2.217-0.105,4.442-0.089,6.659,0.171
				c-0.528,4.101-1.064,8.21-1.941,12.254C800.977,485.204,799.531,480.908,798.468,476.62z"/>
			<path id="XMLID_35_" fill="#144522" d="M760.162,553.078c5.823,11.653,11.93,23.161,17.979,34.7
				c-8.503,2.314-16.875,5.149-25.028,8.511C755.192,581.85,757.888,567.492,760.162,553.078z"/>
			<path id="XMLID_34_" fill="#144522" d="M726.428,656.09c23.047-12.206,44.518-27.456,63.407-45.46
				c0.845,0.853,1.705,1.705,2.566,2.566c-6.448,11.126-14.211,21.553-22.714,31.192l-0.528-0.041
				c-1.072-0.081-2.152-0.171-3.183,0.138c-10.119,2.761-19.652,7.187-29.202,11.442c-34.733,15.608-67.663,35.09-98.327,57.634
				c-8.356,5.944-16.258,12.506-24.557,18.532c4.215-15.608,9.039-31.046,13.822-46.492
				C662.355,683.555,695.877,672.161,726.428,656.09z"/>
			<path id="XMLID_33_" fill="#144522" d="M184.501,613.131c2.891-0.804,2.347,2.388,2.566,4.198
				C186.052,616.022,185.216,614.609,184.501,613.131z"/>
			<path id="XMLID_32_" fill="#144522" d="M683.98,622.015l0.211-0.179c1.559,1.153,3.013,2.672,4.962,3.151
				c4.694,0.682,9.501,0.349,14.155,1.405c-25.556,17.63-50.487,36.178-74.419,55.969c3.825-12.587,8.129-25.028,12.457-37.445
				C656.938,640.344,671.328,632.109,683.98,622.015z"/>
			<path id="XMLID_31_" fill="#144522" d="M454.072,634.765c7.236-1.851,13.862-5.433,20.936-7.707
				c-9.94,12.522-19.539,25.345-27.773,39.061c-13.351,21.715-23.469,45.217-32.167,69.124
				c-3.939-11.743-8.064-23.412-12.344-35.033c22.454-16.753,39.662-39.889,51.259-65.259L454.072,634.765z"/>
			<path id="XMLID_30_" fill="#144522" d="M397.664,630.217c4.816,3.313,10.151,5.806,15.787,7.398
				c-4.799,18.402-9.071,36.934-13.334,55.465c-2.607-5.953-4.458-12.23-7.422-18.028
				C395.456,660.337,396.373,645.176,397.664,630.217z"/>
			<path id="XMLID_29_" fill="#144522" d="M607.71,637.688c5.587-0.674,10.809-3.248,14.747-7.268
				c5.1,2.469,10.606,3.971,16.234,4.621c-6.44,16.355-12.157,32.979-17.898,49.586C616.642,668.921,612.16,653.313,607.71,637.688z
				"/>
			<path id="XMLID_28_" fill="#144522" d="M644.805,635.122c1.291-0.065,2.582-0.114,3.898-0.154
				c-1.998,2.664-3.833,5.482-6.407,7.65C643.003,640.076,643.872,637.583,644.805,635.122z"/>
			<path id="XMLID_27_" fill="#144522" d="M556.808,643.811c4.401-0.682,8.827-1.218,13.237-1.876
				c12.677,19.644,28.837,37.258,48.311,50.325c-4.125,12.815-7.91,25.727-11.873,38.59c-12.636-30.713-27.668-60.76-47.97-87.185
				C558.091,643.706,557.23,643.779,556.808,643.811z"/>
			<path id="XMLID_26_" fill="#144522" d="M490.583,679.438c7.325-10.809,11.84-23.25,14.869-35.878
				c0.893,0.065,1.51,0.422,1.835,1.056c0.422,2.388,1.194,4.694,2.201,6.903c3.208,7.747,7.155,15.227,12.132,21.991
				c9.233,12.376,18.946,24.46,29.998,35.285c-4.621,15.446-5.579,31.695-5.579,47.734c1.137-0.097,2.29-0.203,3.443-0.3
				c-4.263,0.966-8.641,1.145-12.961,1.673c-0.325-8.186-1.031-16.347-1.153-24.533c-0.203-13.367-4.807-26.165-10.143-38.265
				c-3.857-8.73-8.218-17.232-12.295-25.865c-1.364-2.842-2.428-5.839-4.198-8.462c0.406,22.787-2.144,45.672,0.625,68.385
				c1.048,10.427,3.995,20.521,7.228,30.445c-3.638,0.244-7.276,0.479-10.923,0.568c-10.257-18.499-25.061-33.848-39.881-48.717
				C474.967,701.526,482.949,690.579,490.583,679.438z"/>
			<path id="XMLID_25_" fill="#144522" d="M278.508,666.038c2.818-1.096,5.758-1.835,8.722-2.444
				c15.113,8.454,31.119,15.3,47.596,20.659c0.633,2.428,1.324,4.848,1.811,7.317C317.739,682.02,298.379,673.363,278.508,666.038z"
				/>
			<path id="XMLID_24_" fill="#144522" d="M246.341,681.752c2.452-0.52,4.897-1.064,7.341-1.64
				c10.785,11.052,22.73,20.911,35.455,29.649c-1.592-0.106-3.053-0.731-4.369-1.592
				C271.426,700.194,258.23,691.789,246.341,681.752z"/>
			<path id="XMLID_23_" fill="#144522" d="M384.484,685.682c1.648-1.218,3.208-2.55,4.661-3.987c1.121,3.2,2.347,6.367,3.419,9.591
				C389.755,689.589,387.107,687.648,384.484,685.682z"/>
			<path id="XMLID_22_" fill="#144522" d="M368.373,698.456c1.949-1.38,2.363-3.866,2.988-5.993
				c7.041,1.519,14.285,1.519,21.447,1.917c1.234-0.179,1.389,1.332,1.819,2.128c4.702,13.351,9.574,26.661,13.757,40.182
				c-16.721-11.905-33.628-23.64-51.519-33.726C361.04,702.541,364.881,700.69,368.373,698.456z"/>
			<path id="XMLID_21_" fill="#144522" d="M424.073,737.859c11.077-2.802,21.155-8.486,30.136-15.454
				c3.955,9.331,8.559,18.467,14.682,26.588c2.875,3.955,6.35,7.406,9.566,11.085c-2.03,0.227-4.06,0.309-6.091,0.171
				c-4.913-0.406-9.875,0.268-14.739-0.731c2.168,0.089,4.337,0.106,6.513,0.114C452.139,750.186,438.472,742.91,424.073,737.859z"
				/>
			<path id="XMLID_20_" fill="#144522" d="M574.333,725.864c9.574,5.116,20.042,8.584,30.883,9.639
				c-0.788,3.029-1.705,6.018-2.436,9.063l0.91,0.447c-9.461,2.769-19.076,5.076-28.772,6.878
				C575.015,743.21,574.723,734.529,574.333,725.864z"/>
			<path id="XMLID_19_" fill="#144522" d="M322.896,726.563c10.996,4.125,21.821,8.787,33.19,11.824
				c17.338,4.929,36.056,7.073,53.646,2.128c1.51,4.564,3.005,9.144,4.32,13.773c-30.583-5.36-60.622-13.96-89.223-26.076
				C323.911,727.951,323.27,727.399,322.896,726.563z"/>
			<path id="XMLID_18_" fill="#144522" d="M612.655,736.429c4.093,0.828,8.202,1.657,12.384,1.876
				c-4.637,1.998-9.526,3.297-14.358,4.718C611.356,740.823,612.005,738.63,612.655,736.429z"/>
			<path id="XMLID_17_" fill="#144522" d="M416.935,740.417c5.1,5.368,9.826,11.085,14.804,16.567
				c-3.338-0.577-6.692-1.064-10.054-1.421C420.159,750.495,418.332,745.517,416.935,740.417z"/>
		</g>
		<g>
			<path id="XMLID_16_" fill="#4CA146" d="M508.14,251.072c6.87,0.325,13.732,0.788,20.578,1.413
				c-14.991,19.449-29.641,39.418-40.498,61.531c-1.478,3.013-2.777,6.107-3.963,9.25l-0.138,0.357
				c-16.022,6.026-31.216,14.609-43.82,26.279c2.095-6.156,5.896-11.515,9.095-17.119
				C466.651,304.044,483.136,273.973,508.14,251.072z"/>
			<path id="XMLID_15_" fill="#4CA146" d="M421.247,255.563c8.364-1.202,16.745-2.331,25.174-3.013
				c-13.943,22.503-17.825,49.212-23.177,74.663c-2.745-17.89-12.961-33.636-24.582-47.109c5.132-8.909,11.767-16.891,19.571-23.583
				C419.071,255.831,420.216,255.782,421.247,255.563z"/>
			<path id="XMLID_14_" fill="#4CA146" d="M559.772,262.1c2.98-1.446,5.701-3.728,9.112-4.06c4.726,0.991,9.444,2.006,14.187,2.94
				c-4.84,3.654-10.062,6.765-14.885,10.427c-11.028,8.299-20.887,18.028-30.461,27.927c-2.737,2.915-5.685,5.636-8.113,8.819
				c22.251-16.973,46.833-30.705,72.202-42.431c9.128,2.501,18.174,5.311,27.083,8.511c-22.3,15.308-44.656,30.599-65.892,47.385
				c-5.611-3.614-11.767-6.448-18.329-7.812c-5.896-1.34-12.011-1.145-17.996-0.585c-12.295,1.275-24.363,4.215-36.105,8.032
				c2.055-3.752,5.003-6.878,7.674-10.175C515.246,290.864,536.49,274.452,559.772,262.1z"/>
			<path id="XMLID_13_" fill="#4CA146" d="M568.608,326.1c28.983-16.104,59.42-29.86,91.132-39.638
				c2.582,1.429,5.311,2.566,7.975,3.833c-17.622,8.827-34.911,18.337-51.981,28.179c8.641-3.07,17.054-6.773,25.816-9.493
				c13.034-4.328,26.336-7.804,39.735-10.768c-6.091,5.027-12.222,10.037-17.776,15.665c-1.429,1.413-2.956,3.135-5.165,2.98
				c-19.027,0.617-37.819,4.353-56.066,9.607c-8.641,2.599-17.508,4.913-25.24,9.737C574.495,332.621,571.937,329.016,568.608,326.1
				z"/>
			<path id="XMLID_12_" fill="#4CA146" d="M480.854,387.291c3.191-8.234,9.388-14.869,16.006-20.521
				c-0.528,6.765,2.623,13.302,7.357,17.971c7.049,7.228,17.435,10.59,27.408,10.021c2.566-0.154,5.108-0.593,7.666-0.901
				c-1.981,2.103-4.678,3.281-7.114,4.767c-9.81,5.449-20.188,10.638-31.484,11.929c-7.195,0.974-14.666-2.452-18.84-8.324
				C478.808,397.872,478.994,392.082,480.854,387.291z"/>
			<path id="XMLID_11_" fill="#4CA146" d="M177.485,410.135c5.79-0.528,11.645-1.072,17.452-0.633
				c-5.53,5.376-10.151,11.58-14.382,18.004c-3.695-0.292-7.39-0.601-11.093-0.715l-0.861-0.033
				c2.095-5.628,4.816-11.012,7.658-16.29C176.567,410.387,177.176,410.224,177.485,410.135z"/>
			<path id="XMLID_10_" fill="#4CA146" d="M411.454,427.31c2.493-2.371,4.458-5.205,6.269-8.113
				c0.512,2.274,1.226,4.507,2.103,6.675C417.065,426.523,414.255,426.904,411.454,427.31z"/>
			<path id="XMLID_9_" fill="#4CA146" d="M252.911,448.863c0.284-9.039-0.016-18.158,1.445-27.116
				c4.077,1.876,8.202,3.646,12.181,5.717c0.016-0.504,0.041-1.519,0.049-2.03c2.883,1.137,6.139,1.429,8.795,3.021
				c4.353,4.32,8.681,8.697,12.595,13.416c-2.29,3.411-6.472,5.709-7.861,9.826c0.179,2.834,0.983,5.579,1.283,8.405
				c-2.396,1.039-4.653,2.347-6.846,3.752C267.869,458.145,260.609,453.102,252.911,448.863z"/>
			<path id="XMLID_8_" fill="#4CA146" d="M493.173,468.215c18.986-1.129,38.03-1.169,57.041-1.397
				c1.348-0.057,2.712,0.057,4.044,0.333c-15.259,4.734-30.331,10.053-45.395,15.365c-28.813-15.746-66.656-12.766-92.829,6.992
				c-3.013,2.225-5.782,4.743-8.576,7.236c-1.056-1.583-2.258-3.07-3.224-4.71c-0.13-5.376,0.617-10.752,0.845-16.128
				c28.878-4.588,58.088-6.456,87.258-7.885l-0.016,1.088C492.532,468.889,492.962,468.442,493.173,468.215z"/>
			<path id="XMLID_7_" fill="#4CA146" d="M648.858,469.871c5.433,0.617,10.882,1.121,16.323,1.697
				c-4.174,1.283-8.381,2.501-12.352,4.345C651.538,473.875,650.206,471.869,648.858,469.871z"/>
			<path id="XMLID_6_" fill="#4CA146" d="M696.86,474.525c2.306,0.13,4.621,0.309,6.935,0.495c-0.171,1.039-0.325,2.087-0.479,3.135
				C701.18,476.912,699.004,475.735,696.86,474.525z"/>
			<path id="XMLID_5_" fill="#4CA146" d="M753.113,596.288c8.153-3.362,16.526-6.196,25.028-8.511
				c2.777,5.555,5.579,11.101,8.137,16.77c0.934,2.16,2.16,4.182,3.557,6.083c-18.889,18.004-40.36,33.255-63.407,45.46
				c-30.551,16.071-64.073,27.465-98.717,29.511c-4.783,15.446-9.607,30.883-13.822,46.492c8.3-6.026,16.201-12.587,24.557-18.532
				c30.664-22.543,63.594-42.025,98.327-57.634c9.55-4.255,19.084-8.681,29.202-11.442c1.031-0.309,2.111-0.219,3.183-0.138
				c-37.851,44.234-89.378,75.239-144.12,93.958c-4.182-0.219-8.291-1.048-12.384-1.876c-0.65,2.201-1.299,4.393-1.973,6.594
				c-2.379,0.495-4.678,1.275-6.992,1.99l-0.91-0.447c0.731-3.045,1.649-6.034,2.436-9.063c-10.841-1.056-21.309-4.523-30.883-9.639
				c0.39,8.665,0.682,17.346,0.585,26.027c-8.454,1.608-16.908,3.191-25.434,4.337c-1.153,0.097-2.306,0.203-3.443,0.3
				c0-16.039,0.958-32.288,5.579-47.734c-11.052-10.825-20.765-22.909-29.998-35.285c-4.978-6.765-8.925-14.244-12.132-21.991
				c-1.007-2.209-1.778-4.515-2.201-6.903c3.849,1.697,7.975,2.81,12.198,2.899c12.547,0.422,24.955-1.917,37.323-3.703
				c0.422-0.033,1.283-0.106,1.705-0.146c20.302,26.425,35.334,56.472,47.97,87.185c3.963-12.863,7.747-25.776,11.873-38.59
				c-19.474-13.066-35.634-30.681-48.311-50.325c8.015-0.966,16.006-2.501,24.111-2.493c4.58-0.073,8.974-1.624,13.554-1.754
				c4.45,15.625,8.933,31.233,13.083,46.938c5.741-16.607,11.458-33.23,17.898-49.586c2.03,0.049,4.068,0.089,6.115,0.081
				c-0.934,2.461-1.803,4.954-2.509,7.495c2.574-2.168,4.41-4.986,6.407-7.65c12.035-1.876,23.209-7.439,32.816-14.845
				c0.617,0.471,1.852,1.421,2.461,1.892c-12.652,10.094-27.042,18.329-42.634,22.901c-4.328,12.417-8.632,24.858-12.457,37.445
				c23.932-19.791,48.863-38.338,74.419-55.969c1.38-0.56,2.98-0.049,4.458-0.049c10.167,1.08,20.562,0.479,30.477-2.071
				c3.248-1.031,7.016-1.99,9.095-4.913c2.891-7.366,4.288-15.202,5.547-22.982L753.113,596.288z"/>
			<path id="XMLID_4_" fill="#4CA146" d="M475.007,627.058c3.768-2.672,8.202-4.377,12.246-6.635
				c2.176,10.013,9.851,17.663,18.231,22.982l-0.033,0.154c-3.029,12.628-7.544,25.069-14.869,35.878
				c-7.633,11.142-15.616,22.089-24.801,32.02c14.82,14.869,29.625,30.218,39.881,48.717c-8.957,0.357-17.923,0.479-26.888,0.26
				l-0.317-0.357c-3.216-3.679-6.692-7.13-9.566-11.085c-6.123-8.121-10.728-17.257-14.682-26.588
				c-8.982,6.968-19.06,12.652-30.136,15.454c14.398,5.051,28.066,12.327,40.068,21.772c-2.176-0.008-4.345-0.024-6.513-0.114
				c-8.657-0.56-17.297-1.38-25.889-2.534c-4.978-5.482-9.704-11.199-14.804-16.567c1.397,5.1,3.224,10.078,4.751,15.145
				c-2.566-0.317-5.124-0.682-7.634-1.275c-1.316-4.629-2.81-9.209-4.32-13.773c-17.59,4.946-36.308,2.802-53.646-2.128
				c-11.369-3.037-22.194-7.698-33.19-11.824c-11.556-4.913-23.226-9.883-33.758-16.802c-12.725-8.738-24.671-18.597-35.455-29.649
				c5.758-1.957,10.882-5.977,13.456-11.572c3.817-0.698,7.536-1.917,11.369-2.501c19.872,7.325,39.232,15.982,58.129,25.532
				c1.096,0.666,1.714,1.884,2.566,2.818c2.396,3.143,6.212,4.58,9.42,6.692c2.452,1.616,5.449,1.543,8.243,1.884
				c17.89,10.086,34.798,21.821,51.519,33.726c-4.182-13.521-9.055-26.831-13.757-40.182c-0.43-0.796-0.585-2.306-1.819-2.128
				c-7.163-0.398-14.406-0.398-21.447-1.917c0.252-1.738,0.512-3.468,0.763-5.189c4.182,0.447,8.454,0.049,12.36-1.592
				c2.623,1.965,5.27,3.906,8.08,5.603c-1.072-3.224-2.298-6.391-3.419-9.591c1.397-2.095,2.501-4.361,3.549-6.643
				c2.964,5.798,4.816,12.076,7.422,18.028c4.263-18.532,8.535-37.063,13.334-55.465c13.432,3.257,27.457,1.218,40.531-2.664
				c-11.596,25.37-28.805,48.506-51.259,65.259c4.28,11.621,8.405,23.291,12.344,35.033c8.697-23.908,18.816-47.409,32.167-69.124
				C455.468,652.403,465.067,639.581,475.007,627.058z"/>
			<path id="XMLID_3_" fill="#4CA146" d="M300.686,646.361c4.41,0.877,8.933,0.422,13.237-0.763
				c0.901,5.798,1.624,11.637,3.013,17.346c2.599,7.958,10.102,13.164,17.72,15.771c0.024,1.844,0.081,3.687,0.171,5.538
				c-16.477-5.36-32.483-12.206-47.596-20.659C294.839,661.247,299.394,653.873,300.686,646.361z"/>
			<path id="XMLID_2_" fill="#4CA146" d="M508.733,660.776c1.77,2.623,2.834,5.62,4.198,8.462
				c4.077,8.633,8.438,17.135,12.295,25.865c5.335,12.1,9.94,24.898,10.143,38.265c0.122,8.186,0.828,16.347,1.153,24.533
				c-6.635,0.698-13.278,1.332-19.937,1.705c-3.232-9.924-6.18-20.018-7.228-30.445
				C506.589,706.447,509.139,683.563,508.733,660.776z"/>
		</g>
	</g>
</g>
</svg>
